<svg xmlns="http://www.w3.org/2000/svg" viewBox="0 0 24 24" fill="none">
  <rect width="24" height="24" rx="5" fill="#25D366"/>
  <path d="M6.5 17.5l1-3.5A7 7 0 0 1 6 11.5 7 7 0 0 1 13 4.5a7 7 0 0 1 7 7 7 7 0 0 1-7 7c-1.2 0-2.4-.3-3.4-.9l-3.9 1.3.8-3.4Z" fill="#fff"/>
  <path d="M9.5 9.2c-.1-.3-.2-.3-.4-.3h-.4c-.3 0-.6.2-.8.5-.3.5-.4 1.2-.1 2 .3.8 1.1 1.6 2.1 2.3.9.6 1.7.9 2.3 1 .5.1 1 0 1.3-.3.3-.3.5-.6.5-.9l.1-.4c0-.2-.1-.2-.2-.3l-1.1-.5s-.2-.1-.3 0c-.2.2-.3.3-.4.5-.1.1-.1.2-.2.2s-.2 0-.3-.1c-.3-.1-.7-.4-1-.7-.3-.3-.5-.7-.6-.9 0-.1 0-.2.1-.2.1-.1.2-.2.2-.3l.2-.3c0-.1 0-.2-.1-.3l-.6-1.3s-.1-.1-.2-.1l-.2-.2Z" fill="#25D366"/>
</svg>
